# xmcd
#
# Track frame offsets:
#	183
#	9735
#	25620
#	38610
#	54185
#	67370
#	82780
#	96348
#	108573
#	124350
#	140730
#
# Disc length: 2058 seconds
#
# Revision: 2
# Processed by: cddbd v1.5.2PL0 Copyright (c) Steve Scherf et al.
# Submitted via: EZCDAudioConverter 6.0.8.1
#
DISCID=9208080b
DTITLE=Clinton Gregory
DYEAR=1995
DGENRE=Country
TTITLE0=A-11
TTITLE1=Today's Just Not Your Day
TTITLE2=The Gulf And The Shell
TTITLE3=You Didn't Miss A Thing
TTITLE4=No Relief In Sight
TTITLE5=Three Shorts And A Long
TTITLE6=Don't Our Love Look Natural
TTITLE7=I've Got A Double
TTITLE8=Sweet Healin'
TTITLE9=I Can't Take A Full Moon On An Empty Heart
TTITLE10=Hacksaw
EXTD=
EXTT0=
EXTT1=
EXTT2=
EXTT3=
EXTT4=
EXTT5=
EXTT6=
EXTT7=
EXTT8=
EXTT9=
EXTT10=
PLAYORDER=
